@startuml
skinparam object {
ArrowColor DarkBlue
}

skinparam stereotypeCBackgroundColor LightBlue


package Delivery <<Aggregate>> {
    entity Delivery <<Entity>>

    object Id <<Value Object>>

    object Date <<Value Object>>

    object Mass <<Value Object>>

    object TimeLoad <<Value Object>>

    object TimeUnload <<Value Object>>

}


 entity Order <<Entity>>
 entity Store <<Entity>>
 entity County <<Entity>>
 entity Fleet <<Entity>>
 entity Merchandise <<Entity>>
 entity Fleet <<Entity>>
 entity Plan <<Entity>>
 entity SaleForecast <<Entity>>
 entity ChargingPost <<Entity>>







 package Warehouse <<Aggregate>>{

 entity Warehouse <<Entity>> <<Root>>{
     }

    object WarehouseID <<ValueObject>>

    object Designation <<ValueObject>>

    object Address <<ValueObject>>

    object Coordinates <<ValueObject>>

 }




package Truck <<Aggregate>>{

object Tare <<ValueObject>>

object LoadInKG <<ValueObject>>

object LoadInKWH <<ValueObject>>

object Autonomy <<ValueObject>>

object TimeChargeKWH <<ValueObject>>


}

package SystemUser <<Aggregate>>{
entity User <<Entity>>

object Username <<ValueObject>>

object Password <<ValueObject>>
}

package Route <<Aggregate>>{
entity Route <<Entity>>

object IdDeparture <<ValueObject>>

object IdArrival <<ValueObject>>

object Distance <<ValueObject>>
object TimeRoute <<ValueObject>>



}



/' User '/
User -- Username : has >
User -- Password : has >
User --- Customer : is an <


Warehouse -- "1" WarehouseID: caracterized >
Warehouse -- "1" Designation: has >
Warehouse -- "1" Address: has >
Warehouse -- "1" Coordinates: has >
Warehouse"1"-- "1..*" Route: origins <
Warehouse"1"-- "1..*" Route: destiny <
Warehouse"1"-- "1..*" Delivery: has >


Delivery"0..*"--"1" Order: has  >
Delivery"*"--"1" Truck: belong >
Delivery "*"--"1" Plan: has <

Order"1"-- "1..*" SaleForecast: has >


Truck"*" --"1" Fleet: has <
Truck"1" --"1" Plan: has >

Route "*" --"1" Plan: has <


/' charging post '/
ChargingPost "1"---"1" Truck: charges>
ChargingPost "1..*"---"1" Warehouse: has <

/' Store '/
Store "1"--- "1" Warehouse : >has
Store "1"--- "1" County : localized >
Store "1"--- "1..*" Delivery : has >



@enduml